<svg width="800" height="100" viewBox="0 0 800 100" fill="none" xmlns="http://www.w3.org/2000/svg">
<path d="M308.887 13.5417H326.36V86.3594H313.256V34.4531L293.074 86.3594H281.215L261.038 34.349V86.3594H247.928V13.5417H265.407L287.147 69.7136L308.892 13.5417H308.887ZM388.98 59.8282C388.98 65.1719 387.819 69.9375 385.496 74.1302C383.173 78.3281 379.913 81.6042 375.72 83.9636C371.522 86.3229 366.756 87.5 361.413 87.5C356.069 87.5 351.116 86.3073 346.954 83.9115C342.793 81.5209 339.532 78.224 337.178 74.0313C334.819 69.8386 333.642 65.099 333.642 59.8282C333.642 54.5573 334.819 49.7396 337.178 45.5782C339.538 41.4167 342.814 38.1407 347.012 35.75C351.204 33.3594 356.012 32.1615 361.418 32.1615C366.824 32.1615 371.616 33.3438 375.777 35.6979C379.939 38.0625 383.178 41.3386 385.506 45.5313C387.829 49.724 388.991 54.4948 388.991 59.8334L388.98 59.8282ZM376.392 59.8282C376.392 56.6407 375.772 53.7813 374.522 51.25C373.272 48.7188 371.506 46.7761 369.22 45.4219C366.928 44.0729 364.329 43.3959 361.413 43.3959C358.496 43.3959 355.793 44.0729 353.512 45.4219C351.22 46.7761 349.433 48.6979 348.152 51.1927C346.871 53.6927 346.225 56.5677 346.225 59.8282C346.225 63.0886 346.871 65.9636 348.152 68.4636C349.433 70.9636 351.22 72.8855 353.512 74.2396C355.798 75.5886 358.433 76.2657 361.413 76.2657C364.392 76.2657 366.928 75.5886 369.22 74.2396C371.506 72.8855 373.277 70.9636 374.522 68.4636C375.772 65.9688 376.392 63.0886 376.392 59.8282ZM448.892 12.5V86.3594H436.308V80.224C434.647 82.4479 432.454 84.2136 429.756 85.5261C427.053 86.8438 423.829 87.5 420.079 87.5C415.225 87.5 410.923 86.375 407.183 84.1198C403.439 81.8646 400.527 78.6563 398.444 74.4948C396.366 70.3334 395.324 65.4427 395.324 59.8282C395.324 54.2136 396.329 49.5313 398.34 45.3698C400.35 41.2084 403.173 37.9688 406.819 35.6459C410.46 33.3229 414.741 32.1615 419.668 32.1615C423.48 32.1615 426.756 32.7813 429.496 34.0313C432.235 35.2813 434.506 36.9792 436.308 39.125V12.4948H448.892V12.5ZM436.725 59.8282C436.725 56.6407 436.136 53.7813 434.954 51.25C433.777 48.7188 432.111 46.7761 429.965 45.4219C427.814 44.0729 425.282 43.3959 422.371 43.3959C419.314 43.3959 416.699 44.0729 414.517 45.4219C412.334 46.7761 410.668 48.7188 409.522 51.25C408.381 53.7813 407.808 56.6407 407.808 59.8282C407.808 63.0157 408.381 65.8802 409.522 68.4115C410.668 70.9427 412.35 72.8802 414.569 74.2344C416.793 75.5834 419.392 76.2605 422.376 76.2605C425.361 76.2605 427.73 75.5834 429.913 74.2344C432.095 72.8802 433.782 70.9427 434.959 68.4115C436.142 65.8802 436.73 63.0209 436.73 59.8282H436.725ZM509.746 33.3021V86.3542H497.163V80.3229C495.428 82.5417 493.209 84.2917 490.506 85.5782C487.803 86.8594 484.574 87.5 480.829 87.5C475.975 87.5 471.678 86.375 467.933 84.1198C464.189 81.8646 461.293 78.6563 459.246 74.4948C457.199 70.3334 456.178 65.4427 456.178 59.8282C456.178 54.2136 457.183 49.5313 459.194 45.3698C461.204 41.2084 464.027 37.9688 467.673 35.6459C471.314 33.3229 475.595 32.1615 480.522 32.1615C484.402 32.1615 487.767 32.8386 490.611 34.1875C493.449 35.5417 495.637 37.2917 497.163 39.4375V33.3021H509.746ZM497.574 59.8282C497.574 56.6407 496.985 53.7813 495.803 51.25C494.626 48.7188 492.959 46.7761 490.814 45.4219C488.663 44.0729 486.131 43.3959 483.22 43.3959C480.163 43.3959 477.548 44.0729 475.366 45.4219C473.183 46.7761 471.517 48.7188 470.371 51.25C469.23 53.7813 468.657 56.6407 468.657 59.8282C468.657 63.0157 469.23 65.8802 470.371 68.4115C471.517 70.9427 473.199 72.8802 475.418 74.2344C477.642 75.5834 480.241 76.2605 483.225 76.2605C486.21 76.2605 488.579 75.5834 490.762 74.2344C492.944 72.8802 494.631 70.9427 495.808 68.4115C496.991 65.8802 497.579 63.0209 497.579 59.8282H497.574ZM520.303 12.5V86.3594H532.892V12.5H520.303Z" fill="#DFFFDD"/>
<path d="M77.5378 2.08333L95.5795 33.3333L58.293 97.9167C57.5482 99.2031 56.1732 100 54.6836 100H21.0065C20.2617 100 19.5482 99.8021 18.9232 99.4427C18.2982 99.0833 17.7722 98.5625 17.3972 97.9167L0.558594 68.75C-0.186198 67.4635 -0.186198 65.875 0.558594 64.5833L36.6472 2.08333C37.0169 1.4375 37.5482 0.91667 38.1732 0.557295C38.7982 0.19792 39.5117 0 40.2565 0H73.9336C75.4232 0 76.7982 0.796875 77.543 2.08333H77.5378ZM190.605 64.5833L154.517 2.08333C154.147 1.4375 153.616 0.91667 152.991 0.557295C152.366 0.19792 151.652 0 150.908 0H117.23C115.741 0 114.366 0.796875 113.621 2.08333L95.5795 33.3333L132.866 97.9167C133.611 99.2031 134.986 100 136.475 100H170.152C170.897 100 171.611 99.8021 172.236 99.4427C172.861 99.0833 173.387 98.5625 173.762 97.9167L190.6 68.75C191.345 67.4635 191.345 65.875 190.6 64.5833H190.605Z" fill="#62DE61"/>
<path d="M57.0948 33.3333H95.5844L77.5427 2.08333C76.7979 0.796875 75.4229 0 73.9333 0H40.2562C39.5114 0 38.7979 0.19792 38.1729 0.557295L57.0948 33.3333Z" fill="url(#paint0_linear_319_2047)"/>
<path d="M57.0951 33.3333L38.1732 0.557312C37.5482 0.916687 37.0222 1.43752 36.6472 2.08335L0.558594 64.5834C-0.186198 65.875 -0.186198 67.4583 0.558594 68.75L17.3972 97.9167C17.767 98.5625 18.2982 99.0833 18.9232 99.4427L57.0899 33.3333H57.0951Z" fill="url(#paint1_linear_319_2047)"/>
<path d="M95.5796 33.3334H57.09L18.9233 99.4427C19.5483 99.8021 20.2619 100 21.0067 100H54.6838C56.1734 100 57.5483 99.2032 58.2931 97.9167L95.5796 33.3334Z" fill="#09AF58"/>
<path d="M190.606 68.75C190.976 68.1042 191.163 67.3854 191.163 66.6667H153.319L134.397 99.4427C135.022 99.8021 135.736 100 136.481 100H170.158C171.647 100 173.022 99.2031 173.767 97.9167L190.606 68.75Z" fill="#09AF58"/>
<path d="M117.23 0C116.486 0 115.772 0.19792 115.147 0.557295L153.314 66.6667H191.157C191.157 65.9479 190.97 65.2292 190.6 64.5833L154.517 2.08333C153.772 0.796875 152.397 0 150.907 0H117.225H117.23Z" fill="url(#paint2_linear_319_2047)"/>
<path d="M134.392 99.4427L153.314 66.6667L115.147 0.557312C114.522 0.916687 113.996 1.43752 113.621 2.08335L95.5796 33.3333L132.866 97.9167C133.236 98.5625 133.767 99.0833 134.392 99.4427Z" fill="url(#paint3_linear_319_2047)"/>
<path d="M560.021 12H584.392C592.516 12 599.464 13.5677 605.236 16.7032C611.08 19.8387 615.498 24.2213 618.491 29.8509C621.555 35.4805 623.087 42.0009 623.087 49.4121C623.087 56.8232 621.555 63.3436 618.491 68.9733C615.498 74.6029 611.08 78.9855 605.236 82.121C599.464 85.2564 592.516 86.8242 584.392 86.8242H560.021V12ZM584.072 74.7454C589.559 74.7454 594.191 73.6765 597.968 71.5387C601.816 69.4008 604.702 66.4435 606.626 62.6667C608.621 58.8898 609.619 54.4716 609.619 49.4121C609.619 41.7159 607.41 35.5874 602.991 31.0267C598.645 26.3948 592.338 24.0788 584.072 24.0788H573.382V74.7454H584.072Z" fill="#7FEE64"/>
<path d="M658.298 88C652.811 88 647.894 86.7886 643.547 84.3657C639.271 81.9428 635.922 78.5935 633.499 74.3179C631.147 69.9709 629.972 65.0539 629.972 59.5668C629.972 54.0797 631.147 49.1983 633.499 44.9226C635.922 40.5757 639.271 37.1908 643.547 34.7679C647.894 32.3451 652.811 31.1336 658.298 31.1336C663.856 31.1336 668.773 32.3451 673.049 34.7679C677.325 37.1908 680.674 40.5757 683.097 44.9226C685.52 49.1983 686.731 54.0797 686.731 59.5668C686.731 65.0539 685.52 69.9709 683.097 74.3179C680.674 78.5935 677.325 81.9428 673.049 84.3657C668.773 86.7886 663.856 88 658.298 88ZM658.298 76.5626C661.362 76.5626 664.07 75.85 666.422 74.4247C668.773 72.9995 670.59 71.0042 671.873 68.4388C673.227 65.8734 673.904 62.9161 673.904 59.5668C673.904 56.2175 673.227 53.2602 671.873 50.6948C670.59 48.1294 668.773 46.1341 666.422 44.7089C664.07 43.2836 661.362 42.571 658.298 42.571C655.305 42.571 652.633 43.2836 650.281 44.7089C647.929 46.1341 646.077 48.1294 644.723 50.6948C643.44 53.2602 642.799 56.2175 642.799 59.5668C642.799 62.9161 643.44 65.8734 644.723 68.4388C646.077 71.0042 647.929 72.9995 650.281 74.4247C652.633 75.85 655.305 76.5626 658.298 76.5626Z" fill="#7FEE64"/>
<path d="M721.559 88C716 88 711.083 86.8242 706.807 84.4726C702.532 82.0497 699.183 78.7004 696.76 74.4247C694.408 70.1491 693.232 65.1964 693.232 59.5668C693.232 53.9372 694.408 48.9845 696.76 44.7089C699.183 40.3619 702.532 37.0127 706.807 34.661C711.083 32.3094 716 31.1336 721.559 31.1336C729.112 31.1336 735.205 33.1289 739.837 37.1195C744.54 41.0389 747.426 46.5973 748.495 53.7947H735.561C734.706 50.1603 733.032 47.3812 730.537 45.4571C728.115 43.533 725.122 42.571 721.559 42.571C718.566 42.571 715.893 43.2836 713.542 44.7089C711.19 46.0628 709.337 48.0225 707.983 50.5879C706.701 53.1533 706.059 56.1463 706.059 59.5668C706.059 64.6976 707.484 68.8307 710.335 71.9662C713.185 75.0305 716.927 76.5626 721.559 76.5626C725.05 76.5626 728.043 75.6362 730.537 73.7834C733.032 71.8594 734.671 69.1871 735.454 65.7665H748.495C747.426 72.8214 744.54 78.3085 739.837 82.2278C735.134 86.0759 729.041 88 721.559 88Z" fill="#7FEE64"/>
<path d="M777.809 88C770.826 88 765.196 86.3254 760.921 82.9761C756.645 79.5555 754.365 74.7811 754.08 68.6526H765.944C766.372 71.5743 767.655 73.8903 769.793 75.6006C772.002 77.2396 774.817 78.0591 778.237 78.0591C781.159 78.0591 783.332 77.5246 784.757 76.4557C786.254 75.3868 787.002 73.9972 787.002 72.2869C787.002 70.8617 786.503 69.7215 785.506 68.8664C784.508 67.94 783.19 67.2274 781.551 66.7285C779.983 66.1585 777.916 65.5527 775.351 64.9114C771.289 63.9137 767.904 62.8804 765.196 61.8115C762.56 60.6714 760.279 58.9611 758.355 56.6807C756.431 54.3291 755.469 51.1936 755.469 47.2743C755.469 42.286 757.358 38.3666 761.134 35.5162C764.982 32.5945 770.185 31.1336 776.741 31.1336C783.083 31.1336 788.285 32.8082 792.347 36.1575C796.48 39.4355 798.796 43.925 799.295 49.6259H787.323C786.895 46.918 785.684 44.8158 783.689 43.3193C781.764 41.7515 779.342 40.9676 776.42 40.9676C773.712 40.9676 771.61 41.4665 770.113 42.4641C768.688 43.4618 767.975 44.887 767.975 46.7398C767.975 48.2363 768.51 49.4477 769.579 50.3741C770.648 51.3005 771.93 52.0488 773.427 52.6188C774.995 53.1177 777.204 53.759 780.054 54.5429C784.116 55.5406 787.43 56.5738 789.995 57.6428C792.632 58.7117 794.877 60.3863 796.729 62.6667C798.582 64.8758 799.508 67.9044 799.508 71.7525C799.508 76.5982 797.691 80.5176 794.057 83.5105C790.423 86.5035 785.007 88 777.809 88Z" fill="#7FEE64"/>
<defs>
<linearGradient id="paint0_linear_319_2047" x1="81.1468" y1="41.6667" x2="52.6052" y2="-7.77607" gradientUnits="userSpaceOnUse">
<stop stop-color="#BFF9B4"/>
<stop offset="1" stop-color="#80EE64"/>
</linearGradient>
<linearGradient id="paint1_linear_319_2047" x1="4.49089" y1="91.1094" x2="52.1211" y2="8.61458" gradientUnits="userSpaceOnUse">
<stop stop-color="#80EE64"/>
<stop offset="0.18" stop-color="#7BEB63"/>
<stop offset="0.36" stop-color="#6FE562"/>
<stop offset="0.55" stop-color="#5ADA60"/>
<stop offset="0.74" stop-color="#3DCA5D"/>
<stop offset="0.93" stop-color="#18B759"/>
<stop offset="1" stop-color="#09AF58"/>
</linearGradient>
<linearGradient id="paint2_linear_319_2047" x1="177.209" y1="74.7187" x2="129.579" y2="-7.77606" gradientUnits="userSpaceOnUse">
<stop stop-color="#BFF9B4"/>
<stop offset="1" stop-color="#80EE64"/>
</linearGradient>
<linearGradient id="paint3_linear_319_2047" x1="148.345" y1="91.3906" x2="100.715" y2="8.8907" gradientUnits="userSpaceOnUse">
<stop stop-color="#80EE64"/>
<stop offset="0.18" stop-color="#7BEB63"/>
<stop offset="0.36" stop-color="#6FE562"/>
<stop offset="0.55" stop-color="#5ADA60"/>
<stop offset="0.74" stop-color="#3DCA5D"/>
<stop offset="0.93" stop-color="#18B759"/>
<stop offset="1" stop-color="#09AF58"/>
</linearGradient>
</defs>
</svg>
